<svg width="119" height="20" viewBox="0 0 119 20" fill="none" xmlns="http://www.w3.org/2000/svg">
<path d="M113.648 5.90039H118.965V19.199H113.648V5.90039Z" fill="white"/>
<path d="M113.648 0.808594H118.965V4.55391H113.648V0.808594Z" fill="white"/>
<path d="M103.271 19.2047H97.9551V0.804688H103.271V9.06169L105.971 5.89965H112.234L107.603 10.8612L113.011 19.201H106.876L103.955 14.7197L103.271 15.4557V19.2047Z" fill="white"/>
<path d="M87.856 10.4608H83.0183C83.0183 10.4608 81.9932 5.08986 90.1124 5.08986C90.1124 5.08986 96.1368 4.73934 96.4553 9.45435C96.7739 14.1693 96.1276 17.3728 97.5178 19.2063H92.3396C92.0575 18.8256 91.8175 18.4153 91.6221 17.9827C91.0471 18.5445 90.3634 18.9807 89.614 19.264C88.8646 19.5474 88.065 19.6718 87.2654 19.6295C84.2962 19.6295 82.623 17.8815 82.623 15.6395C82.623 13.3975 83.9174 11.747 88.0587 10.999C89.7144 10.6991 91.1995 10.5004 91.2753 9.57671C91.351 8.65303 90.0887 8.48007 89.7646 8.48007C89.5045 8.4613 89.2434 8.50012 88.9988 8.59387C88.7551 8.68762 88.5351 8.8339 88.3526 9.02268C88.1709 9.21137 88.0322 9.43788 87.9464 9.68628C87.8606 9.93477 87.8295 10.1991 87.856 10.4608ZM88.3799 14.1933C87.2426 14.6937 87.8113 15.5659 87.8113 15.5659C88.0258 15.862 88.3307 16.0801 88.6784 16.1878C89.0262 16.2957 89.3995 16.2872 89.7418 16.1639C91.6979 15.6404 91.5482 13.0212 91.5482 13.0212C91.5482 13.0212 89.5191 13.6955 88.3799 14.1933Z" fill="white"/>
<path d="M68.4941 14.5538H73.3474C73.3419 14.8261 73.393 15.0964 73.4971 15.3477C73.6012 15.599 73.7554 15.826 73.9498 16.0142C74.1452 16.2025 74.377 16.348 74.6308 16.4415C74.8845 16.5351 75.1547 16.5745 75.424 16.5576C77.1071 16.5576 77.0569 15.5585 77.0569 15.5585C77.0569 15.5585 77.1071 14.5336 75.2533 14.2337C73.174 13.92 68.7442 13.5372 68.7442 9.81767C68.7442 9.81767 68.3472 5.26367 75.1529 5.26367C79.9778 5.26367 81.6108 7.40083 81.6108 9.89495H76.9848C76.9301 9.48049 76.7247 9.10108 76.4089 8.8295C76.0939 8.55792 75.6896 8.41311 75.2752 8.42295C74.2611 8.42295 73.6952 8.79831 73.6952 9.27211C73.6952 9.89495 74.0867 10.1415 76.9091 10.515C80.1513 11.1894 82.0088 12.0156 82.0088 15.3828C82.0088 18.75 78.5174 19.8457 75.3765 19.8457C72.2356 19.8457 68.4941 18.7941 68.4941 14.5538Z" fill="white"/>
<path d="M59.0329 10.4608H54.1951C54.1951 10.4608 53.1691 5.08986 61.2866 5.08986C61.2866 5.08986 67.3109 4.73934 67.6304 9.45435C67.9499 14.1693 67.3027 17.3728 68.6938 19.2063H63.5147C63.2326 18.8257 62.9917 18.4154 62.7972 17.9827C62.2231 18.5446 61.5403 18.9809 60.7909 19.2643C60.0416 19.5477 59.242 19.672 58.4433 19.6295C55.4739 19.6295 53.8008 17.8815 53.8008 15.6395C53.8008 13.3975 55.0924 11.747 59.2347 10.999C60.8923 10.6991 62.3792 10.5004 62.4504 9.57671C62.5216 8.65303 61.2638 8.48007 60.9425 8.48007C60.6823 8.46167 60.4213 8.50067 60.1776 8.59451C59.9338 8.68835 59.713 8.83473 59.5313 9.02333C59.3497 9.21193 59.21 9.43834 59.1242 9.68655C59.0384 9.93486 59.0074 10.1991 59.0329 10.4608ZM59.5596 14.1933C58.4232 14.6937 58.9919 15.5659 58.9919 15.5659C59.2064 15.8619 59.5103 16.08 59.8581 16.1877C60.2059 16.2955 60.5792 16.2872 60.9215 16.1639C62.8776 15.6404 62.7297 13.0212 62.7297 13.0212C62.7297 13.0212 60.6988 13.6955 59.5596 14.1933Z" fill="white"/>
<path d="M31.3945 5.9043H36.9141L38.7954 12.141L40.7396 5.9043H45.3546L47.1363 12.141L49.191 5.9043H54.4103L50.353 19.1992H45.1812L43.1019 12.6884L41.3192 19.1992H35.9511L31.3945 5.9043Z" fill="white"/>
<path d="M23.0361 10.4608H18.2038C18.2038 10.4608 17.1779 5.08986 25.2952 5.08986C25.2952 5.08986 31.3196 4.73934 31.6418 9.45435C31.964 14.1693 31.3104 17.3728 32.7033 19.2063H27.5224C27.2415 18.8249 27.001 18.4148 26.805 17.9827C26.2309 18.5447 25.5479 18.981 24.7987 19.2645C24.0494 19.5479 23.2501 19.6721 22.451 19.6295C19.4808 19.6295 17.8086 17.8815 17.8086 15.6395C17.8086 13.3975 19.1002 11.747 23.2406 10.999C24.9 10.6991 26.3851 10.5004 26.4599 9.57671C26.5348 8.65303 25.2733 8.48007 24.9502 8.48007C24.6895 8.46093 24.4279 8.49948 24.1835 8.59304C23.9392 8.68651 23.7181 8.83279 23.5357 9.02149C23.3535 9.21018 23.2143 9.43677 23.1279 9.68545C23.0416 9.93403 23.0103 10.1987 23.0361 10.4608ZM23.5628 14.1933C22.4254 14.6937 22.9941 15.5659 22.9941 15.5659C23.2089 15.8621 23.5129 16.0803 23.8608 16.1881C24.2087 16.2958 24.5819 16.2874 24.9246 16.1639C26.8807 15.6404 26.7319 13.0212 26.7319 13.0212C26.7319 13.0212 24.701 13.6955 23.5628 14.1933Z" fill="white"/>
<path d="M0.00273684 1.20703H5.54514V6.81165L11.0903 1.20703H18.0219L10.9442 8.53941L18.5477 19.6043H11.3331L6.97364 12.6675L5.53967 14.1597V19.607H0L0.00273684 1.20703Z" fill="white"/>
</svg>
